<?xml version="1.0" encoding="UTF-8" standalone="no"?>
<!-- Created with Inkscape (http://www.inkscape.org/) -->

<svg
   xmlns:dc="http://purl.org/dc/elements/1.1/"
   xmlns:cc="http://creativecommons.org/ns#"
   xmlns:rdf="http://www.w3.org/1999/02/22-rdf-syntax-ns#"
   xmlns:svg="http://www.w3.org/2000/svg"
   xmlns="http://www.w3.org/2000/svg"
   xmlns:sodipodi="http://sodipodi.sourceforge.net/DTD/sodipodi-0.dtd"
   xmlns:inkscape="http://www.inkscape.org/namespaces/inkscape"
   width="10.777008mm"
   height="10.442223mm"
   viewBox="0 0 38.18625 37"
   id="svg2"
   version="1.1"
   inkscape:version="0.91 r13725"
   sodipodi:docname="logo text under.svg"
   inkscape:export-filename="C:\Users\Ahmed\GSkip\logo\Logo w Title.png"
   inkscape:export-xdpi="90"
   inkscape:export-ydpi="90">
  <defs
     id="defs4">
    <inkscape:perspective
       sodipodi:type="inkscape:persp3d"
       inkscape:vp_x="0 : 526.18109 : 1"
       inkscape:vp_y="0 : 999.99998 : 0"
       inkscape:vp_z="744.09451 : 526.18109 : 1"
       inkscape:persp3d-origin="372.04724 : 350.7874 : 1"
       id="perspective4309" />
    <inkscape:path-effect
       effect="spiro"
       id="path-effect4234"
       is_visible="true" />
    <inkscape:path-effect
       effect="spiro"
       id="path-effect4230"
       is_visible="true" />
    <inkscape:path-effect
       effect="spiro"
       id="path-effect4226"
       is_visible="true" />
    <inkscape:path-effect
       effect="spiro"
       id="path-effect4222"
       is_visible="true" />
    <inkscape:path-effect
       effect="spiro"
       id="path-effect4218"
       is_visible="true" />
    <mask
       maskUnits="userSpaceOnUse"
       id="mask4471">
      <rect
         style="opacity:1;fill:#ffffff;fill-opacity:1;stroke:none;stroke-opacity:1"
         id="rect4473"
         width="4.5898438"
         height="3.125"
         x="36.914062"
         y="300.50674" />
    </mask>
    <clipPath
       clipPathUnits="userSpaceOnUse"
       id="clipPath6475">
      <rect
         style="opacity:1;fill:#aa0000;fill-opacity:1;fill-rule:nonzero;stroke:none;stroke-opacity:1"
         id="rect6477"
         width="23"
         height="23"
         x="51"
         y="308.36221"
         ry="5.9999914" />
    </clipPath>
  </defs>
  <sodipodi:namedview
     id="base"
     pagecolor="#000000"
     bordercolor="#666666"
     borderopacity="1.0"
     inkscape:pageopacity="0"
     inkscape:pageshadow="2"
     inkscape:zoom="11.313709"
     inkscape:cx="34.110625"
     inkscape:cy="14.574976"
     inkscape:document-units="px"
     inkscape:current-layer="layer1"
     showgrid="false"
     inkscape:snap-bbox="true"
     inkscape:bbox-nodes="true"
     inkscape:bbox-paths="true"
     inkscape:window-width="1920"
     inkscape:window-height="1057"
     inkscape:window-x="-8"
     inkscape:window-y="-8"
     inkscape:window-maximized="1"
     inkscape:snap-grids="true"
     inkscape:snap-object-midpoints="true"
     inkscape:snap-bbox-midpoints="true"
     inkscape:snap-global="true"
     inkscape:object-nodes="true"
     inkscape:snap-bbox-edge-midpoints="true"
     inkscape:snap-nodes="true"
     inkscape:snap-center="true"
     inkscape:object-paths="true"
     inkscape:snap-intersection-paths="true"
     inkscape:snap-smooth-nodes="true"
     showguides="false"
     fit-margin-top="0"
     fit-margin-left="0"
     fit-margin-right="0"
     fit-margin-bottom="0">
    <inkscape:grid
       type="xygrid"
       id="grid4138"
       originx="-42.906876"
       originy="-706.99999" />
  </sodipodi:namedview>
  <metadata
     id="metadata7">
    <rdf:RDF>
      <cc:Work
         rdf:about="">
        <dc:format>image/svg+xml</dc:format>
        <dc:type
           rdf:resource="http://purl.org/dc/dcmitype/StillImage" />
        <dc:title></dc:title>
      </cc:Work>
    </rdf:RDF>
  </metadata>
  <g
     inkscape:label="Layer 1"
     inkscape:groupmode="layer"
     id="layer1"
     transform="translate(-42.906877,-308.36221)">
    <g
       id="g4183"
       style="fill:#ffffff"
       inkscape:export-filename="C:\Users\Ahmed\GSkip\logo\g4183.png"
       inkscape:export-xdpi="1233.14"
       inkscape:export-ydpi="1233.14">
      <path
         id="path4545-5"
         d="m 62.529297,307.44922 c -6.214887,0 -6.675877,0.009 -7.226563,0.15625 -2.605996,0.69532 -4.58394,2.76866 -5.117187,5.36328 -0.187423,0.91196 -0.201034,12.7258 -0.01563,13.69141 0.574446,2.9917 3.077523,5.31494 6.050781,5.61523 0.373772,0.0377 3.40134,0.0598 6.728516,0.0508 5.935498,-0.0163 6.063157,-0.0188 6.722656,-0.19922 0.875562,-0.23948 2.055793,-0.82811 2.685547,-1.33789 1.033626,-0.83672 1.879184,-2.08521 2.322266,-3.42773 0.1864,-0.56477 0.194056,-0.71404 0.222656,-3.75977 l 0.03125,-3.17187 -4.582032,0 c -3.282567,0 -4.640453,0.0281 -4.792968,0.0976 -0.315245,0.14363 -0.480027,0.45272 -0.529297,0.9961 -0.0694,0.76533 0.0355,1.25021 0.330078,1.52539 0.244706,0.22881 0.285617,0.23828 1.136719,0.23828 l 0.880859,0 L 67.662109,323 c 0.157116,-0.15712 0.28711,-0.36394 0.28711,-0.46094 0,-0.16944 0.03793,-0.17578 1.048828,-0.17578 l 1.050781,0 0,1.6582 c -2.86e-4,1.51028 -0.01528,1.68512 -0.167969,1.93555 -0.09227,0.15134 -0.267043,0.31318 -0.388671,0.35938 -0.140225,0.0529 -1.830391,0.0752 -4.619141,0.0605 l -4.398438,-0.0234 -0.232421,-0.23243 -0.234376,-0.23437 0,-4.0293 0,-4.0293 0.234376,-0.23242 0.232421,-0.23242 7.22461,-0.0234 7.222656,-0.0215 0,-1.95117 c -4.94e-4,-1.63756 -0.02627,-2.06114 -0.162109,-2.625 -0.590874,-2.45277 -2.457483,-4.38486 -4.925782,-5.09961 l -0.667968,-0.19336 -6.636719,0 z m 6.46875,4.41016 c 0.0069,0 0.01265,0.002 0.01953,0.002 a 1.5,1.5 0 0 1 0.373047,0.0547 c 0.513406,0.1188 0.902349,0.46147 1.080078,1 0.139689,0.42326 0.02253,0.91145 -0.232422,1.29296 -0.144981,0.21695 -0.323319,0.40757 -0.552734,0.51172 -0.193338,0.0878 -0.502657,0.16016 -0.6875,0.16016 -1.003087,0 -1.734105,-0.94842 -1.474609,-1.91211 0.149812,-0.55637 0.539726,-0.92069 1.064453,-1.04883 a 1.5,1.5 0 0 1 0.392578,-0.0586 c 0.0062,-6e-5 0.01131,-0.002 0.01758,-0.002 z"
         clip-path="url(#clipPath6475)"
         style="opacity:1;fill:#ffffff;fill-opacity:1;stroke:none;stroke-opacity:1"
         inkscape:connector-curvature="0" />
      <rect
         ry="1"
         y="320.36221"
         x="65"
         height="3.0000083"
         width="3"
         id="rect4511"
         style="opacity:1;fill:#ffffff;fill-opacity:1;stroke:none;stroke-opacity:1" />
      <rect
         ry="0"
         y="320.36221"
         x="67"
         height="1.9999915"
         width="7"
         id="rect4513"
         style="opacity:1;fill:#ffffff;fill-opacity:1;stroke:none;stroke-opacity:1" />
      <rect
         ry="0.88888699"
         y="318.36221"
         x="61"
         height="2.9999917"
         width="3"
         id="rect4541"
         style="opacity:1;fill:#ffffff;fill-opacity:1;stroke:none;stroke-opacity:1" />
      <rect
         ry="0.88888699"
         y="322.36221"
         x="61"
         height="2.9999917"
         width="3"
         id="rect4543"
         style="opacity:1;fill:#ffffff;fill-opacity:1;stroke:none;stroke-opacity:1" />
    </g>
    <text
       xml:space="preserve"
       style="font-style:normal;font-variant:normal;font-weight:normal;font-stretch:normal;font-size:10px;line-height:125%;font-family:Pirulen;-inkscape-font-specification:Pirulen;letter-spacing:0px;word-spacing:0px;fill:#ffffff;fill-opacity:1;stroke:none;stroke-width:1px;stroke-linecap:butt;stroke-linejoin:miter;stroke-opacity:1"
       x="42.306877"
       y="341.40219"
       id="text4166"
       sodipodi:linespacing="125%"
       inkscape:export-filename="C:\Users\Ahmed\GSkip\logo\g4183.png"
       inkscape:export-xdpi="1233.14"
       inkscape:export-ydpi="1233.14"><tspan
         sodipodi:role="line"
         id="tspan4168"
         x="42.306877"
         y="341.40219">GSKIP</tspan></text>
    <text
       xml:space="preserve"
       style="font-style:normal;font-variant:normal;font-weight:normal;font-stretch:normal;font-size:2.5px;line-height:125%;font-family:Pirulen;-inkscape-font-specification:Pirulen;letter-spacing:0px;word-spacing:0px;fill:#ffffff;fill-opacity:1;stroke:none;stroke-width:1px;stroke-linecap:butt;stroke-linejoin:miter;stroke-opacity:1"
       x="47.000004"
       y="345.36221"
       id="text4728"
       sodipodi:linespacing="125%"><tspan
         sodipodi:role="line"
         id="tspan4730"
         x="47.000004"
         y="345.36221">skip the hassle</tspan></text>
  </g>
</svg>
